<svg height="120" viewBox="0 0 120 120" width="120" xmlns="http://www.w3.org/2000/svg"><g fill="#f3ba2f" transform="translate(10 10)"><path d="m30.58001 42.0208 19.4202-19.4193 19.4303 19.4296 11.3-11.3-30.7303-30.7311-30.7201 30.7209z"/><path d="m22.60011 49.998-11.2998-11.2998-11.30031 11.3004 11.29981 11.2997z"/><path d="m30.58001 57.9792 19.4202 19.4193 19.4296-19.4288 11.3062 11.2937-.0055.0063-30.7303 30.7303-30.7209-30.72-.0158-.0158z"/><path d="m88.70111 61.3042 11.3007-11.3003-11.3001-11.2998-11.3004 11.3004z"/><path d="m61.46211 49.994h.0047l-11.4666-11.4667-8.474 8.474h-.0008l-.9731.9739-2.0085 2.0085-.0158.0158.0158.0166 11.4564 11.4563 11.4666-11.4666.0055-.0063z"/></g></svg>