<svg height="120" viewBox="0 0 120 120" width="120" xmlns="http://www.w3.org/2000/svg"><g fill="none" transform="translate(16 16)"><circle cx="44" cy="44" fill="#7950dd" r="44"/><path d="m58.2979 34.2196c-1.0358-.6379-2.3823-.6379-3.5216 0l-8.0792 4.8902-5.4896 3.1894-8.079 4.8905c-1.0358.6378-2.3823.6378-3.5217 0l-6.4218-3.8273c-1.0358-.6378-1.7609-1.8073-1.7609-3.0831v-7.5481c0-1.2758.6215-2.4452 1.7609-3.0831l6.3182-3.7209c1.0358-.6379 2.3823-.6379 3.5217 0l6.3182 3.7209c1.0358.6379 1.7608 1.8073 1.7608 3.0831v4.8903l5.4897-3.2956v-4.8904c0-1.2758-.6214-2.4452-1.7608-3.0831l-11.7043-7.0166c-1.0358-.6378-2.3823-.6378-3.5217 0l-11.9115 7.0166c-1.1393.6379-1.7608 1.8073-1.7608 3.0831v14.1396c0 1.2756.6215 2.4451 1.7608 3.0829l11.9115 7.0166c1.0358.638 2.3824.638 3.5217 0l8.079-4.784 5.4896-3.2956 8.0792-4.7841c1.0357-.6378 2.3823-.6378 3.5216 0l6.3182 3.721c1.0359.6378 1.761 1.8073 1.761 3.083v7.5482c0 1.2757-.6215 2.4451-1.761 3.083l-6.3182 3.8273c-1.0358.6379-2.3823.6379-3.5216 0l-6.3182-3.7209c-1.0359-.6379-1.761-1.8073-1.761-3.0832v-4.8903l-5.4896 3.2956v4.8905c0 1.2757.6215 2.4451 1.7609 3.083l11.9115 7.0167c1.0357.6378 2.3822.6378 3.5215 0l11.9116-7.0167c1.0357-.6379 1.7608-1.8073 1.7608-3.083v-14.1396c0-1.2757-.6215-2.4451-1.7608-3.083z" fill="#fff"/></g></svg>