<svg height="120" viewBox="0 0 120 120" width="120" xmlns="http://www.w3.org/2000/svg" xmlns:xlink="http://www.w3.org/1999/xlink"><linearGradient id="a" x1="6.333295%" x2="93.096136%" y1="92.316871%" y2="5.555455%"><stop offset="0" stop-color="#00aee9"/><stop offset="1" stop-color="#69fabd"/></linearGradient><path d="m69.0164.0000057c-5.0262-.00389428-9.8486 1.98670572-13.4087 5.53480572-3.56 3.5481-5.5667 8.36389998-5.5797 13.39009998v20.9831c-1.9556.132-3.9551.2151-6.028.2151s-4.0627.0831-6.028.2005v-21.3987c-.08-4.9826-2.1154-9.73419998-5.6673-13.22949998s-8.3354-5.4543-13.3187-5.4543-9.7668 1.959-13.3187 5.4543-5.5873 8.24689998-5.6673 13.22949998v50.1502c.08 4.9826 2.1154 9.7341 5.6673 13.2295s8.3354 5.4544 13.3187 5.4544 9.7668-1.959 13.3187-5.4544 5.5873-8.2469 5.6673-13.2295v-20.9831c1.9556-.132 3.9551-.2151 6.028-.2151s4.0627-.0831 6.028-.2005v21.3987c.08 4.9826 2.1154 9.7341 5.6673 13.2295s8.3354 5.4544 13.3187 5.4544 9.7668-1.959 13.3187-5.4544c3.5523-3.4954 5.5873-8.2469 5.6673-13.2295v-50.1502c-.013-5.0254-2.019-9.84039998-5.578-13.38839998-3.559-3.5479-8.3802-5.5391-13.4056-5.53650572zm-50.0328 7.75380465c2.9663-.00129893 5.812 1.17410107 7.9127 3.26840105 2.1007 2.0943 3.2848 4.9364 3.2926 7.9027v22.22c-5.5549.8049-10.9794 2.3386-16.1333 4.5613-2.2331.9801-4.3353 2.2348-6.2578 3.7351v-30.5164c.0077-2.9629 1.1892-5.8021 3.2857-7.8958 2.0965-2.09369998 4.9371-3.27139998 7.9001-3.27530105zm11.2053 61.32130105c0 2.9718-1.1806 5.822-3.282 7.9234s-4.9515 3.2819-7.9233 3.2819c-2.9719 0-5.822-1.1805-7.9234-3.2819s-3.282-4.9516-3.282-7.9234v-5.0307c0-4.444 3.52-8.6533 9.4209-11.2737 4.1579-1.7938 8.5205-3.0696 12.9898-3.7987zm38.8275 11.1711011c-2.9663.0012989-5.812-1.1741011-7.9127-3.2684011s-3.2848-4.9364-3.2926-7.9027v-22.22c5.5549-.8049 10.9794-2.3386 16.1333-4.5613 2.2331-.9801 4.3353-2.2348 6.2578-3.7351v30.5164c-.0077 2.9629-1.1892 5.8021-3.2857 7.8958-2.0964 2.0937-4.9371 3.2714-7.9001 3.2753011zm1.7845-45.0462011c-4.1579 1.7938-8.5205 3.0696-12.9898 3.7987v-20.0738c0-2.9718 1.1806-5.822 3.282-7.9234 2.1014-2.10139998 4.9515-3.28189998 7.9233-3.28189998 2.9719 0 5.822 1.1805 7.9234 3.28189998 2.1014 2.1014 3.282 4.9516 3.282 7.9234v5.0307c0 4.4244-3.52 8.6337-9.4209 11.2444z" fill="url(#a)" transform="translate(16 16)"/></svg>