<svg height="120" viewBox="0 0 120 120" width="120" xmlns="http://www.w3.org/2000/svg"><g fill="none" fill-rule="evenodd" transform="translate(16 16)"><path d="m72 16h-56v48h56z" fill="#fff" fill-rule="nonzero"/><path d="m88 44c0 24.3008-19.6993 44-44 44-24.3006 0-44-19.6992-44-44 0-24.3005 19.6994-44 44-44 24.3007 0 44 19.6995 44 44zm-56.4684 17.5098h-8.5392c-1.7943 0-2.6806 0-3.221-.3457-.5838-.3785-.9404-1.0054-.9837-1.6973-.0324-.6375.4108-1.416 1.2971-2.9725l21.0843-37.1639c.8971-1.5781 1.3511-2.3672 1.924-2.659.6161-.3135 1.3511-.3135 1.9672 0 .5729.2918 1.0269 1.0809 1.924 2.659l4.3345 7.5664.0221.0386c.969 1.693 1.4604 2.5516 1.675 3.4527.2377.9836.2377 2.0213 0 3.0049-.2162.908-.7026 1.7727-1.6863 3.4914l-11.075 19.5775-.0287.0502c-.9754 1.7069-1.4697 2.5721-2.1548 3.2248-.7458.7136-1.643 1.2321-2.6266 1.5245-.8972.2484-1.9024.2484-3.9129.2484zm21.5642 0h12.2357c1.8051 0 2.7132 0 3.254-.3562.5835-.3785.9509-1.0166.9837-1.7079.031-.6169-.4025-1.3651-1.2521-2.8312-.0293-.0499-.0586-.1007-.0884-.1524l-6.129-10.4847-.0697-.1181c-.8613-1.4564-1.296-2.1919-1.8543-2.4761-.6158-.3135-1.3405-.3135-1.9564 0-.5621.2918-1.016 1.0593-1.9132 2.6049l-6.1071 10.4849-.0209.0361c-.894 1.5432-1.3408 2.3144-1.3086 2.9471.0432.692.3999 1.3294.9836 1.7079.5297.3457 1.4376.3457 3.2427.3457z" fill="#e84142"/></g></svg>